<svg xmlns="http://www.w3.org/2000/svg" width="70" height="43.953" viewBox="0 0 70 43.953">
  <path id="facetime" d="M36.326,37A7.338,7.338,0,0,0,29,44.326v29.3a7.338,7.338,0,0,0,7.326,7.326H70.512a7.338,7.338,0,0,0,7.326-7.326v-29.3A7.338,7.338,0,0,0,70.512,37Zm58.827,1.688a3.365,3.365,0,0,0-1.8.833l-10.9,9.739a4.07,4.07,0,0,0-1.358,3.033V65.552a4.075,4.075,0,0,0,1.529,3.18l10.874,8.7A3.417,3.417,0,0,0,99,74.785V42.046a3.382,3.382,0,0,0-2-3.09A3.421,3.421,0,0,0,95.153,38.688Z" transform="translate(-29 -37)"/>
</svg>
