<svg xmlns="http://www.w3.org/2000/svg" width="92" height="92.001" viewBox="0 0 92 92.001">
  <g id="logo" transform="translate(-394 -454)">
    <path id="u" d="M-983-42a15.9,15.9,0,0,0,11.313-4.686A15.9,15.9,0,0,0-967-58V-74h-16v-30h46v46a45.718,45.718,0,0,1-3.615,17.9,45.84,45.84,0,0,1-9.859,14.621A45.816,45.816,0,0,1-965.1-15.615,45.708,45.708,0,0,1-983-12Z" transform="translate(1423 558)" fill="gold"/>
    <path id="t" d="M1191-1284a45.723,45.723,0,0,1-17.9-3.615,45.834,45.834,0,0,1-14.621-9.859,45.823,45.823,0,0,1-9.858-14.621A45.719,45.719,0,0,1,1145-1330v-46h46v30h-16v16a15.894,15.894,0,0,0,4.686,11.313A15.9,15.9,0,0,0,1191-1314v30h0Z" transform="translate(-751 1830)" fill="#0057b7"/>
  </g>
</svg>
