<svg xmlns="http://www.w3.org/2000/svg" width="70" height="70.016" viewBox="0 0 70 70.016">
  <path id="signal" d="M52.425,23.7A28.436,28.436,0,0,0,28.363,67.267L25.627,78.941l11.665-2.735A28.444,28.444,0,1,0,52.4,23.723ZM36.171,79.426l-4.692,1.1.747,3.181,3.459-.8A34.479,34.479,0,0,0,44,86.089l.8-3.181a31.807,31.807,0,0,1-8.628-3.5h0Zm-15.3-7.109,3.181.74,1.089-4.7a31.489,31.489,0,0,1-3.523-8.6l-3.181.8a35.171,35.171,0,0,0,3.228,8.318l-.8,3.459Zm7.7,8.866-6.775,1.59L23.385,76l-3.181-.74-1.59,6.767A3.276,3.276,0,0,0,21.063,86a3.181,3.181,0,0,0,1.495,0l6.775-1.59-.747-3.228ZM47.654,20.749a32.253,32.253,0,0,1,9.542,0l.445-3.22a35.187,35.187,0,0,0-10.5,0l.5,3.236Zm34.75,13.3L79.6,35.73a31.72,31.72,0,0,1,3.634,8.747l3.181-.8A34.789,34.789,0,0,0,82.435,34Zm-55.512-.724a32.038,32.038,0,0,1,6.719-6.751l-1.964-2.64a34.686,34.686,0,0,0-7.4,7.411l2.64,1.964ZM71.239,26.57a31.9,31.9,0,0,1,6.727,6.719l2.64-1.948a34.686,34.686,0,0,0-7.4-7.4Zm6.727,44.355a31.9,31.9,0,0,1-6.727,6.719l1.948,2.64a34.988,34.988,0,0,0,7.419-7.4l-2.64-1.964ZM57.18,83.5a31.72,31.72,0,0,1-9.542,0l-.493,3.252a35.132,35.132,0,0,0,10.488,0L57.14,83.5ZM86.411,60.54l-3.181-.8a31.808,31.808,0,0,1-3.642,8.811L82.4,70.241a34.766,34.766,0,0,0,4.016-9.7Zm-2.258-8.405a31.752,31.752,0,0,1-.358,4.771l3.236.493a35.132,35.132,0,0,0,0-10.488l-3.236.493a31.649,31.649,0,0,1,.358,4.771ZM70.523,82.113l-1.686-2.807a31.72,31.72,0,0,1-8.747,3.634l.8,3.181a34.789,34.789,0,0,0,9.685-3.976ZM20.705,52.135a32.718,32.718,0,0,1,.35-4.77l-3.236-.494a35.131,35.131,0,0,0,0,10.488l3.244-.469a32.825,32.825,0,0,1-.35-4.771Zm1.749-18.09a34.853,34.853,0,0,0-4.016,9.693l3.181.8a31.871,31.871,0,0,1,3.634-8.795Zm38.368-15.9-.8,3.181a31.871,31.871,0,0,1,8.811,3.65l1.694-2.807a34.988,34.988,0,0,0-9.709-4.024Zm-16.8,0,.8,3.181a31.871,31.871,0,0,0-8.8,3.65l-1.686-2.807a34.988,34.988,0,0,1,9.7-4.016Z" transform="translate(-17.425 -17.135)"/>
</svg>
