<svg xmlns="http://www.w3.org/2000/svg" width="70" height="70.401" viewBox="0 0 70 70.401">
  <path id="skype" d="M35.134,56.379c-11.7,0-17.042-5.954-17.042-10.329a3.785,3.785,0,0,1,4-3.787c5,0,3.7,7.507,13.038,7.507,4.778,0,7.577-2.875,7.577-5.572,0-1.624-.931-3.428-4.077-4.217l-10.4-2.637c-8.375-2.129-9.844-6.79-9.844-11.109,0-8.972,8.2-12.215,16.017-12.215,7.2,0,15.751,3.97,15.751,9.355,0,2.306-1.934,3.561-4.182,3.561-4.272,0-3.56-6.008-12.163-6.008-4.272,0-6.523,2-6.523,4.809s3.3,3.754,6.231,4.43l7.7,1.736c8.433,1.905,10.689,6.849,10.689,11.558,0,7.291-5.646,12.917-16.772,12.917M67.427,40.951a33.448,33.448,0,0,0,.5-5.752A32.941,32.941,0,0,0,29.281,2.586,19.371,19.371,0,0,0,19.575,0a19.713,19.713,0,0,0-17,29.45A32.962,32.962,0,0,0,40.719,67.814a19.373,19.373,0,0,0,9.7,2.587,19.713,19.713,0,0,0,17-29.45"/>
</svg>
