<svg xmlns="http://www.w3.org/2000/svg" width="69.552" height="57.64" viewBox="0 0 69.552 57.64">
  <path id="telegram" d="M193.781,325.814q28.005-12.2,37.349-16.088c17.786-7.4,21.482-8.683,23.89-8.725a4.211,4.211,0,0,1,2.482.745,2.7,2.7,0,0,1,.911,1.734,11.293,11.293,0,0,1,.107,2.521c-.964,10.127-5.134,34.7-7.256,46.045-.9,4.8-2.665,6.409-4.377,6.566-3.719.342-6.543-2.458-10.146-4.819-5.637-3.695-8.821-6-14.293-9.6-6.323-4.167-2.224-6.457,1.379-10.2.943-.979,17.33-15.885,17.647-17.237a1.308,1.308,0,0,0-.3-1.132,1.476,1.476,0,0,0-1.326-.129q-.848.192-27.014,17.855-3.834,2.633-6.945,2.565c-2.287-.049-6.685-1.293-9.955-2.356-4.011-1.3-7.2-1.993-6.921-4.207Q189.234,327.622,193.781,325.814Z" transform="translate(-189 -301)" fill-rule="evenodd"/>
</svg>
