<svg xmlns="http://www.w3.org/2000/svg" width="70" height="73.81" viewBox="0 0 70 73.81">
  <g id="viber" transform="translate(0.001 -0.002)">
    <path id="Path_40" data-name="Path 40" d="M62.1,7.2C60.263,5.509,52.851.128,36.341.055c0,0-19.47-1.174-28.961,7.532C2.1,12.871.238,20.6.042,30.19S-.408,57.741,16.91,62.613h.017l-.011,7.433s-.111,3.009,1.871,3.623c2.4.744,3.8-1.543,6.092-4.008,1.256-1.354,2.991-3.342,4.3-4.861a66.746,66.746,0,0,0,21.987-1.618c2.391-.775,15.923-2.51,18.124-20.473C71.559,24.192,68.188,12.48,62.1,7.2ZM64.1,41.38c-1.857,15-12.833,15.942-14.856,16.591a61.634,61.634,0,0,1-18.921,1.61s-7.5,9.044-9.838,11.4a1.251,1.251,0,0,1-1.082.443c-.4-.1-.514-.576-.51-1.274.007-1,.064-12.352.064-12.352h0C4.312,53.726,5.166,38.436,5.332,30.429S7,15.863,11.47,11.451C19.5,4.179,36.036,5.266,36.036,5.266,50,5.327,56.694,9.533,58.246,10.941,63.4,15.353,66.024,25.91,64.1,41.375Z" transform="translate(0)"/>
    <path id="Path_41" data-name="Path 41" d="M337.368,215.9a.933.933,0,0,1-.932-.886c-.158-3.169-1.651-4.721-4.7-4.885a.934.934,0,0,1,.1-1.864c4.021.222,6.256,2.518,6.462,6.656a.934.934,0,0,1-.886.979Z" transform="translate(-294.231 -185.197)"/>
    <path id="Path_42" data-name="Path 42" d="M330.576,177.235h-.022a.934.934,0,0,1-.912-.955,10.769,10.769,0,0,0-2.787-7.9,11.593,11.593,0,0,0-8.137-3.536.935.935,0,1,1,.136-1.865,13.538,13.538,0,0,1,9.377,4.137,12.758,12.758,0,0,1,3.276,9.2A.935.935,0,0,1,330.576,177.235Z" transform="translate(-282.647 -144.924)"/>
    <path id="Path_43" data-name="Path 43" d="M322.246,140.276a.935.935,0,0,1-.934-.927c-.043-5.708-1.687-10.067-5.025-13.326a17.313,17.313,0,0,0-12.386-4.9.934.934,0,0,1,.007-1.867h.008a19.121,19.121,0,0,1,13.676,5.427c3.656,3.562,5.541,8.5,5.59,14.65a.934.934,0,0,1-.926.94Z" transform="translate(-269.414 -106.049)"/>
    <path id="Path_44" data-name="Path 44" d="M161.467,165.218a2.563,2.563,0,0,0,2.019-.76l1.378-1.733a3.029,3.029,0,0,1,3.839-.533,40.609,40.609,0,0,1,3.424,2.186c1.042.766,3.177,2.548,3.183,2.548a2.635,2.635,0,0,1,.559,3.448c0,.008-.006.021-.006.028A14.378,14.378,0,0,1,173,173.932c-.013.007-.013.013-.025.02a5.651,5.651,0,0,1-2.912,1.408,1.927,1.927,0,0,1-.425.027,3.877,3.877,0,0,1-1.238-.191l-.031-.045a42.325,42.325,0,0,1-8-3.7A47.67,47.67,0,0,1,153.634,167a35.259,35.259,0,0,1-3.025-2.683l-.1-.1-.1-.1h0l-.1-.1c-.034-.033-.068-.068-.1-.1a35.254,35.254,0,0,1-2.683-3.025,47.72,47.72,0,0,1-4.443-6.724,42.291,42.291,0,0,1-3.7-8.006l-.045-.031a3.877,3.877,0,0,1-.189-1.238,1.868,1.868,0,0,1,.025-.425,5.761,5.761,0,0,1,1.41-2.914c.007-.012.013-.012.02-.025a14.347,14.347,0,0,1,3.531-2.867c.007,0,.02-.007.028-.007a2.639,2.639,0,0,1,3.447.554c.007.007,1.784,2.141,2.548,3.183a40.618,40.618,0,0,1,2.186,3.427,3.029,3.029,0,0,1-.533,3.839l-1.733,1.378a2.545,2.545,0,0,0-.76,2.019S151.874,162.769,161.467,165.218Z" transform="translate(-123.725 -122.941)"/>
  </g>
</svg>
