<svg xmlns="http://www.w3.org/2000/svg" width="70" height="70.352" viewBox="0 0 70 70.352">
  <path id="whatsapp" d="M61.849,12.236A34.529,34.529,0,0,0,37.191,2,34.882,34.882,0,0,0,6.975,54.271L2.05,72.352,20.517,67.5a34.868,34.868,0,0,0,16.673,4.256h0A34.872,34.872,0,0,0,61.849,12.236ZM37.191,65.844h0A29.062,29.062,0,0,1,22.417,61.8l-1.055-.633L10.387,64.05l2.92-10.693-.7-1.09A28.987,28.987,0,0,1,37.156,7.874a29,29,0,0,1,28.95,29.02A28.9,28.9,0,0,1,37.191,65.844Zm15.9-21.668c-.879-.422-5.171-2.533-5.945-2.849-.809-.281-1.372-.422-1.97.422-.6.879-2.251,2.849-2.744,3.412-.492.6-1.02.668-1.9.211a23.439,23.439,0,0,1-7-4.327,26.615,26.615,0,0,1-4.854-6.05c-.492-.879-.07-1.337.387-1.794.387-.387.879-1.02,1.3-1.513a6.1,6.1,0,0,0,.879-1.442,1.614,1.614,0,0,0-.07-1.513c-.211-.422-1.97-4.714-2.673-6.472-.7-1.688-1.442-1.477-1.97-1.513H24.844a3.16,3.16,0,0,0-2.322,1.09A9.923,9.923,0,0,0,19.5,29.121c0,4.291,3.131,8.442,3.553,9.005.422.6,6.156,9.392,14.879,13.156a42.575,42.575,0,0,0,4.96,1.829,12.051,12.051,0,0,0,5.487.352c1.688-.246,5.171-2.111,5.874-4.151.739-2.04.739-3.764.492-4.151S53.97,44.6,53.09,44.176Z" transform="translate(-2.05 -2)"/>
</svg>
